<svg id="visual" viewBox="0 0 900 600" width="900" height="600" xmlns="http://www.w3.org/2000/svg" xmlns:xlink="http://www.w3.org/1999/xlink" version="1.1"><rect x="0" y="0" width="900" height="600" fill="#acc4d7"></rect><path d="M0 104L21.5 114C43 124 86 144 128.8 147.7C171.7 151.3 214.3 138.7 257.2 138.2C300 137.7 343 149.3 385.8 148.2C428.7 147 471.3 133 514.2 131.2C557 129.3 600 139.7 642.8 137.5C685.7 135.3 728.3 120.7 771.2 131C814 141.3 857 176.7 878.5 194.3L900 212L900 0L878.5 0C857 0 814 0 771.2 0C728.3 0 685.7 0 642.8 0C600 0 557 0 514.2 0C471.3 0 428.7 0 385.8 0C343 0 300 0 257.2 0C214.3 0 171.7 0 128.8 0C86 0 43 0 21.5 0L0 0Z" fill="#cccccc"></path><path d="M0 168L21.5 164.3C43 160.7 86 153.3 128.8 147C171.7 140.7 214.3 135.3 257.2 128.8C300 122.3 343 114.7 385.8 109.3C428.7 104 471.3 101 514.2 98.3C557 95.7 600 93.3 642.8 89.5C685.7 85.7 728.3 80.3 771.2 90.8C814 101.3 857 127.7 878.5 140.8L900 154L900 0L878.5 0C857 0 814 0 771.2 0C728.3 0 685.7 0 642.8 0C600 0 557 0 514.2 0C471.3 0 428.7 0 385.8 0C343 0 300 0 257.2 0C214.3 0 171.7 0 128.8 0C86 0 43 0 21.5 0L0 0Z" fill="#c1cad3"></path><path d="M0 97L21.5 91.7C43 86.3 86 75.7 128.8 73.2C171.7 70.7 214.3 76.3 257.2 80.7C300 85 343 88 385.8 96C428.7 104 471.3 117 514.2 117.7C557 118.3 600 106.7 642.8 100.8C685.7 95 728.3 95 771.2 102C814 109 857 123 878.5 130L900 137L900 0L878.5 0C857 0 814 0 771.2 0C728.3 0 685.7 0 642.8 0C600 0 557 0 514.2 0C471.3 0 428.7 0 385.8 0C343 0 300 0 257.2 0C214.3 0 171.7 0 128.8 0C86 0 43 0 21.5 0L0 0Z" fill="#b5c8da"></path><path d="M0 76L21.5 69.3C43 62.7 86 49.3 128.8 48.8C171.7 48.3 214.3 60.7 257.2 70.2C300 79.7 343 86.3 385.8 81.3C428.7 76.3 471.3 59.7 514.2 59.8C557 60 600 77 642.8 84C685.7 91 728.3 88 771.2 89C814 90 857 95 878.5 97.5L900 100L900 0L878.5 0C857 0 814 0 771.2 0C728.3 0 685.7 0 642.8 0C600 0 557 0 514.2 0C471.3 0 428.7 0 385.8 0C343 0 300 0 257.2 0C214.3 0 171.7 0 128.8 0C86 0 43 0 21.5 0L0 0Z" fill="#a8c6e1"></path><path d="M0 55L21.5 50.2C43 45.3 86 35.7 128.8 29.5C171.7 23.3 214.3 20.7 257.2 18.5C300 16.3 343 14.7 385.8 17.5C428.7 20.3 471.3 27.7 514.2 27.8C557 28 600 21 642.8 24.5C685.7 28 728.3 42 771.2 41.3C814 40.7 857 25.3 878.5 17.7L900 10L900 0L878.5 0C857 0 814 0 771.2 0C728.3 0 685.7 0 642.8 0C600 0 557 0 514.2 0C471.3 0 428.7 0 385.8 0C343 0 300 0 257.2 0C214.3 0 171.7 0 128.8 0C86 0 43 0 21.5 0L0 0Z" fill="#99c4e8"></path></svg>